<svg height='100px' width='100px'  fill="#000000" xmlns="http://www.w3.org/2000/svg" xmlns:xlink="http://www.w3.org/1999/xlink" xmlns:serif="http://www.serif.com/" viewBox="0 0 101 100" version="1.1" xml:space="preserve" style="" x="0px" y="0px" fill-rule="evenodd" clip-rule="evenodd" stroke-linejoin="round" stroke-miterlimit="1.41421"><rect serif:id="Page 84" x="0.5" y="0" width="100" height="100" style="" fill="none"></rect><path d="M51.498,27.001l44.002,0l0,23.997l-22.001,0l-22.001,0l0,44.002l-23.997,0l0,-44.002l-22.001,0l0,-23.997l22.001,0l0,-22.001l23.997,0l0,22.001Zm-1.996,45.998l-20.005,0l0,20.004l20.005,0l0,-20.004Zm-20.005,-22.001l0,20.005l20.005,0l0,-20.005c-6.668,0 -13.336,0 -20.005,0Zm-1.996,-1.996l0,-20.005l-20.004,0l0,20.005l20.004,0Zm44.002,-20.005l-20.005,0l0,20.005l20.005,0l0,-20.005Zm-42.006,0l0,20.005l20.005,0l0,-20.005l-20.005,0Zm44.002,0l0,20.005l20.004,0l0,-20.005c-6.668,0 -13.336,0 -20.004,0Zm-23.997,-22l-20.005,0l0,20.004l20.005,0l0,-20.004Z" style="" fill-rule="nonzero"></path></svg>