<svg height='100px' width='100px'  fill="#000000" xmlns="http://www.w3.org/2000/svg" xmlns:xlink="http://www.w3.org/1999/xlink" version="1.1" x="0px" y="0px" viewBox="0 0 32 32" enable-background="new 0 0 32 32" xml:space="preserve"><g><rect fill="none" width="32" height="32"></rect></g><g><g><g><path d="M13,25C6.383,25,1,19.617,1,13S6.383,1,13,1s12,5.383,12,12S19.617,25,13,25z M13,3C7.486,3,3,7.486,3,13s4.486,10,10,10     s10-4.486,10-10S18.514,3,13,3z"></path></g></g><g><g><path d="M30,31c-0.256,0-0.512-0.098-0.707-0.293l-9-9c-0.391-0.391-0.391-1.023,0-1.414s1.023-0.391,1.414,0l9,9     c0.391,0.391,0.391,1.023,0,1.414C30.512,30.902,30.256,31,30,31z"></path></g></g></g></svg>