<svg height='100px' width='100px'  fill="#000000" xmlns="http://www.w3.org/2000/svg" xmlns:xlink="http://www.w3.org/1999/xlink" version="1.1" x="0px" y="0px" viewBox="0 0 100 100" style="enable-background:new 0 0 100 100;" xml:space="preserve"><path d="M83.95,53.72h-6.27c-0.55,0-1,0.45-1,1s0.45,1,1,1h6.27c0.58,0,1.05,0.46,1.05,1.03v21.71c0,3.33-2.71,6.04-6.04,6.04  s-6.04-2.71-6.04-6.04V16.53c0-1.67-1.37-3.03-3.05-3.03H16.04c-1.68,0-3.04,1.36-3.04,3.03v61.94c0,4.43,3.61,8.04,8.04,8.04h57.92  c4.43,0,8.04-3.61,8.04-8.04V56.75C87,55.08,85.63,53.72,83.95,53.72z M21.04,84.5c-3.33,0-6.04-2.71-6.04-6.04V16.53  c0-0.57,0.47-1.03,1.05-1.03h53.83c0.58,0,1.05,0.46,1.05,1.03v61.94c0,2.41,1.07,4.57,2.75,6.04H21.04z"></path><path d="M21.51,43.82h20.82c0.55,0,1-0.45,1-1V22c0-0.55-0.45-1-1-1H21.51c-0.55,0-1,0.45-1,1v20.82  C20.51,43.38,20.96,43.82,21.51,43.82z M22.51,23h18.82v18.82H22.51V23z"></path><path d="M51.01,25.95h13.27c0.55,0,1-0.45,1-1s-0.45-1-1-1H51.01c-0.55,0-1,0.45-1,1S50.45,25.95,51.01,25.95z"></path><path d="M51.01,33.46h13.27c0.55,0,1-0.45,1-1s-0.45-1-1-1H51.01c-0.55,0-1,0.45-1,1S50.45,33.46,51.01,33.46z"></path><path d="M51.01,40.97h13.27c0.55,0,1-0.45,1-1s-0.45-1-1-1H51.01c-0.55,0-1,0.45-1,1S50.45,40.97,51.01,40.97z"></path><path d="M64.95,50.77H21.51c-0.55,0-1,0.45-1,1s0.45,1,1,1h43.44c0.55,0,1-0.45,1-1S65.5,50.77,64.95,50.77z"></path><path d="M64.95,58.28H21.51c-0.55,0-1,0.45-1,1s0.45,1,1,1h43.44c0.55,0,1-0.45,1-1S65.5,58.28,64.95,58.28z"></path><path d="M64.95,65.79H21.51c-0.55,0-1,0.45-1,1s0.45,1,1,1h43.44c0.55,0,1-0.45,1-1S65.5,65.79,64.95,65.79z"></path><path d="M64.95,73.29H21.51c-0.55,0-1,0.45-1,1s0.45,1,1,1h43.44c0.55,0,1-0.45,1-1S65.5,73.29,64.95,73.29z"></path></svg>